<?xml version="1.0" standalone="no"?>
<svg viewBox="0 0 200 200" xmlns="http://www.w3.org/2000/svg">
  <path fill="#059669" d="M18.1,-19.4C32.5,-18.9,59.4,-29.2,68.2,-26.3C77,-23.5,67.5,-7.6,64.3,8.6C61,24.9,63.9,41.4,58.8,55.4C53.6,69.3,40.3,80.8,27,78.5C13.7,76.1,0.4,60,-12,51.5C-24.4,43,-35.9,42.1,-50.2,37.1C-64.5,32.1,-81.5,23.1,-86.8,10.3C-92.1,-2.6,-85.7,-19.4,-71,-24.4C-56.3,-29.4,-33.2,-22.6,-20,-23.6C-6.8,-24.7,-3.4,-33.5,-0.8,-32.3C1.8,-31.1,3.7,-19.9,18.1,-19.4Z" transform="translate(100 100)" />
</svg>
