<?xml version="1.0" standalone="no"?>
<svg viewBox="0 0 200 200" xmlns="http://www.w3.org/2000/svg">
  <path fill="#059669" d="M27.9,-44.1C36.6,-43.2,44.5,-36.8,53.9,-28.5C63.2,-20.2,73.9,-10.1,69.8,-2.4C65.7,5.3,46.6,10.6,37.7,19.6C28.7,28.6,29.9,41.2,25.3,53.3C20.7,65.4,10.4,76.8,-0.8,78.2C-12,79.6,-24,71,-31.6,60.7C-39.2,50.4,-42.5,38.4,-46.7,28C-51,17.6,-56.2,8.8,-61.7,-3.2C-67.2,-15.1,-72.8,-30.2,-69.9,-43C-67.1,-55.7,-55.6,-66.1,-42.5,-64.5C-29.4,-62.9,-14.7,-49.2,-2.6,-44.8C9.6,-40.3,19.1,-45,27.9,-44.1Z" transform="translate(100 100)" />
</svg>
